<?xml version="1.0" encoding="iso-8859-1"?>
<!-- Generator: Adobe Illustrator 16.0.0, SVG Export Plug-In . SVG Version: 6.00 Build 0)  -->
<!DOCTYPE svg PUBLIC "-//W3C//DTD SVG 1.1//EN" "http://www.w3.org/Graphics/SVG/1.1/DTD/svg11.dtd">
<svg version="1.1" id="Capa_1" xmlns="http://www.w3.org/2000/svg" xmlns:xlink="http://www.w3.org/1999/xlink" x="0px" y="0px"
	 width="402.384px" height="402.384px" viewBox="0 0 402.384 402.384" style="enable-background:new 0 0 402.384 402.384;"
	 xml:space="preserve">
<g>
	<g>
		<g>
			<path d="M255.403,140.78l-54.212,54.212l-54.212-54.212c-7.811-7.811-20.474-7.811-28.284,0s-7.811,20.474,0,28.284
				l68.354,68.354c3.905,3.904,9.023,5.856,14.142,5.856s10.236-1.952,14.142-5.856l68.354-68.354
				c7.812-7.811,7.812-20.474,0-28.284C275.876,132.97,263.214,132.969,255.403,140.78z"/>
			<path d="M385.291,61.015c-16.275-21.885-42.292-34.949-69.594-34.949c-17.988,0-35.168,5.475-49.847,15.828
				c-19.867-8.495-41.724-13.204-64.66-13.204c-22.937,0-44.792,4.709-64.659,13.204c-14.678-10.354-31.858-15.828-49.845-15.828
				c-27.302,0-53.318,13.064-69.595,34.949c-28.519,38.347-20.523,92.745,17.822,121.264c0.521,0.388,1.062,0.738,1.611,1.069
				c-0.212,3.422-0.333,6.867-0.333,10.342c0,41.849,15.668,80.101,41.436,109.218l-39.27,39.271
				c-7.811,7.811-7.811,20.474,0,28.283c3.905,3.904,9.023,5.856,14.142,5.856s10.237-1.952,14.142-5.856l40.961-40.961
				c26.612,18.396,58.861,29.188,93.588,29.188s66.977-10.794,93.588-29.188l40.961,40.961c3.906,3.904,9.022,5.856,14.143,5.856
				c5.117,0,10.236-1.953,14.143-5.856c7.811-7.812,7.811-20.475,0-28.283l-39.271-39.271
				c25.771-29.117,41.438-67.369,41.438-109.218c0-3.475-0.121-6.92-0.333-10.342c0.55-0.331,1.091-0.682,1.61-1.069
				C405.815,153.759,413.812,99.361,385.291,61.015z M201.191,318.689c-68.925,0-125-56.075-125-125c0-68.926,56.075-125,125-125
				c68.925,0,125,56.074,125,125C326.191,262.614,270.116,318.689,201.191,318.689z"/>
		</g>
	</g>
</g>
<g>
</g>
<g>
</g>
<g>
</g>
<g>
</g>
<g>
</g>
<g>
</g>
<g>
</g>
<g>
</g>
<g>
</g>
<g>
</g>
<g>
</g>
<g>
</g>
<g>
</g>
<g>
</g>
<g>
</g>
</svg>
