<?xml version="1.0" encoding="utf-8"?>
<!-- Generator: Adobe Illustrator 16.0.0, SVG Export Plug-In . SVG Version: 6.00 Build 0)  -->
<!DOCTYPE svg PUBLIC "-//W3C//DTD SVG 1.1//EN" "http://www.w3.org/Graphics/SVG/1.1/DTD/svg11.dtd">
<svg xmlns="http://www.w3.org/2000/svg" xmlns:xlink="http://www.w3.org/1999/xlink" version="1.1" id="Employee" x="0px" y="0px" width="512" height="512" viewBox="0 0 144.083 144" enable-background="new 0 0 144.083 144" xml:space="preserve">
<path d="M86.163,88.425c11.729-5.753,19.525-18.648,19.525-34.395c0-21.862-15.094-39.648-33.646-39.648  c-18.554,0-33.647,17.786-33.647,39.648c0,15.746,7.797,28.642,19.525,34.394c-10.408,4.164-24.214,13.793-24.214,26.08v14.245h6  v-14.245c0-8.634,11.225-16.605,19.683-20.245l4.383,4.431l-3.174,5.498c-0.535,0.929-0.535,2.07,0,3l4.11,7.119l-4.511,13.397  l5.687,1.914l4.469-13.271h3.597l4.235,13.229l5.715-1.83l-4.384-13.688l3.97-6.873c0.536-0.928,0.536-2.071,0-3l-3.118-5.398  l4.334-4.525c8.459,3.643,19.678,11.61,19.678,20.242v14.245h6v-14.245C110.377,102.216,96.571,92.587,86.163,88.425z   M74.732,110.348H69.35l-2.69-4.66l2.69-4.662h5.382l2.69,4.662L74.732,110.348z M75.663,95.025h-7.076l-4.23-4.277  c2.455,0.595,5.022,0.917,7.686,0.917c2.678,0,5.258-0.326,7.726-0.927L75.663,95.025z M72.042,20.382  c11.533,0,21.435,8.643,25.574,20.883c-7.406,0.475-15.082-9.505-15.164-9.615c-0.55-0.741-1.41-1.188-2.332-1.212  c-0.908-0.015-1.805,0.378-2.392,1.089c-6.069,7.352-13.024,9.375-17.79,9.777c-5.331,0.448-9.854-0.861-12.624-2.299  C51.858,27.975,61.232,20.382,72.042,20.382z M44.394,54.03c0-3.208,0.378-6.307,1.07-9.248c3.271,1.521,7.567,2.612,12.34,2.612  c0.865,0,1.745-0.036,2.639-0.111c5.286-0.446,12.722-2.472,19.522-9.3c3.627,3.906,11.017,10.409,19.141,9.174  c0.381,2.22,0.582,4.518,0.582,6.873c0,18.035-11.886,31.635-27.646,31.635C56.28,85.665,44.394,72.065,44.394,54.03z"/>
<path d="M81.7,72.927h-6c0,1.563-1.675,2.882-3.658,2.882s-3.658-1.318-3.658-2.882h-6c0,4.897,4.332,8.882,9.658,8.882  C77.368,81.809,81.7,77.824,81.7,72.927z"/>
<ellipse cx="55.529" cy="54.429" rx="2.766" ry="3.52"/>
<ellipse cx="88.553" cy="54.429" rx="2.766" ry="3.52"/>
<path d="M72.042,67.449c1.658,0,3-1.343,3-3v-4.357c0-1.657-1.342-3-3-3c-1.657,0-3,1.343-3,3v4.357  C69.042,66.106,70.384,67.449,72.042,67.449z"/>
</svg>
