<?xml version="1.0" encoding="iso-8859-1"?>
<!-- Generator: Adobe Illustrator 22.1.0, SVG Export Plug-In . SVG Version: 6.00 Build 0)  -->
<svg xmlns="http://www.w3.org/2000/svg" xmlns:xlink="http://www.w3.org/1999/xlink" version="1.1" id="Layer_1_1_" x="0px" y="0px" viewBox="0 0 64 64" style="enable-background:new 0 0 64 64;" xml:space="preserve" width="512" height="512">
<g>
	<path d="M62.22,26c0.48-0.532,0.78-1.229,0.78-2c0-1.654-1.346-3-3-3h-1V6c0-2.757-2.243-5-5-5H28c-2.757,0-5,2.243-5,5v11h-6.896   c-1.583,0-3.136,0.545-4.373,1.533L8.649,21H1v16h7.808l3.749,1.5c0.83,0.332,1.705,0.5,2.599,0.5H23v13c0,2.757,2.243,5,5,5h6.251   l1.75,2.333V63h16v-3.667L53.75,57H54c2.757,0,5-2.243,5-5V39h1c1.654,0,3-1.346,3-3c0-0.771-0.301-1.468-0.78-2   c0.48-0.532,0.78-1.229,0.78-2s-0.301-1.468-0.78-2c0.48-0.532,0.78-1.229,0.78-2S62.699,26.532,62.22,26z M61,32   c0,0.552-0.449,1-1,1h-1v-2h1C60.551,31,61,31.448,61,32z M59,29v-2h1c0.551,0,1,0.448,1,1s-0.449,1-1,1H59z M60,23   c0.551,0,1,0.448,1,1s-0.449,1-1,1h-1v-2H60z M28,3h26c1.654,0,3,1.346,3,3v3H25V6C25,4.346,26.346,3,28,3z M25,11h32v36h-2v-6   c0-1.652-1.345-2.999-2.998-3c-0.001,0-0.002,0-0.003,0c-0.389,0-0.765,0.076-1.116,0.217C50.536,36.944,49.382,36,48,36   c-0.395,0-0.77,0.081-1.116,0.22C46.539,34.945,45.383,34,44,34c-0.352,0-0.686,0.072-1,0.184v-1.879c2.413-1.15,4-3.59,4-6.305v-2   c0-3.859-3.14-7-7-7s-7,3.141-7,7v2c0,2.716,1.587,5.155,4,6.305V40h-1c-1.654,0-3,1.346-3,3h-4V23h1c1.654,0,3-1.346,3-3   s-1.346-3-3-3h-1v-2h24v20h2V13H27v4h-2V11z M37,28v1.997c-1.234-0.928-2-2.398-2-3.997v-2c0-2.757,2.243-5,5-5s5,2.243,5,5v2   c0,1.599-0.766,3.07-2,3.997V28c0-1.654-1.346-3-3-3S37,26.346,37,28z M15.155,37c-0.639,0-1.264-0.12-1.856-0.357L9.193,35H3V23   h6.351l3.63-2.904C13.865,19.389,14.974,19,16.104,19H30c0.551,0,1,0.448,1,1s-0.449,1-1,1h-3v24h6l0,2h-8V21h-5.618l-0.276,0.553   C18.042,23.679,15.905,25,13.528,25H12v2h1.528c2.928,0,5.581-1.518,7.064-4H23v14H15.155z M25,52v-3h8.001l0,4.667   c0,0.452,0.076,0.899,0.197,1.333H28C26.346,55,25,53.654,25,52z M54.836,54.867c0.098-0.393,0.164-0.794,0.164-1.2V51h-2v2.667   c0,0.645-0.213,1.283-0.6,1.8l-2.399,3.2V61h-12v-2.333l-2.4-3.2c-0.387-0.517-0.6-1.155-0.6-1.8L35,43c0-0.552,0.449-1,1-1h1v8   h0.001H39h0.001V40H39V28c0-0.552,0.449-1,1-1s1,0.448,1,1v9v6v4h2v-4v-6c0-0.552,0.449-1,1-1s1,0.448,1,1v2v8h2v-8   c0-0.552,0.449-1,1-1s1,0.448,1,1v2v4v2h2v-2v-4c0-0.268,0.104-0.519,0.293-0.707C51.482,40.104,51.732,40,51.999,40   C52,40,52,40,52,40c0.551,0.001,1,0.449,1,1v8h4v3C57,53.362,56.082,54.502,54.836,54.867z M60,37h-1v-2h1c0.551,0,1,0.448,1,1   S60.551,37,60,37z"/>
	<rect x="37" y="5" width="8" height="2"/>
	<rect x="47" y="5" width="2" height="2"/>
	<rect x="33" y="5" width="2" height="2"/>
</g>
</svg>
