<?xml version="1.0"?>
<svg xmlns="http://www.w3.org/2000/svg" id="Layer_1" data-name="Layer 1" viewBox="0 0 128 128" width="512" height="512"><title>TEAMWORK NEEDED</title><path d="M95.018,50.278A13.3,13.3,0,0,0,88,45.179a4.949,4.949,0,0,0,1.115-3.108,4.988,4.988,0,0,0-9.965-.346,13.144,13.144,0,0,0-2.157-.876,4.949,4.949,0,0,0,1.107-3.1,5,5,0,1,0-10,0,4.949,4.949,0,0,0,1.107,3.1,13.142,13.142,0,0,0-2.158.875,4.987,4.987,0,1,0-8.85,3.455,13.3,13.3,0,0,0-7.017,5.1,1.253,1.253,0,0,0,0,1.428,13.266,13.266,0,0,0,21.8,0,1.231,1.231,0,0,0,.113-.231,1.231,1.231,0,0,0,.113.231,13.266,13.266,0,0,0,21.8,0A1.253,1.253,0,0,0,95.018,50.278Zm-10.9-10.707a2.5,2.5,0,1,1-2.5,2.5A2.5,2.5,0,0,1,84.115,39.571ZM70.6,37.75a2.5,2.5,0,1,1,2.5,2.5A2.5,2.5,0,0,1,70.6,37.75ZM59.585,42.07a2.5,2.5,0,1,1,2.5,2.5A2.5,2.5,0,0,1,59.585,42.07Zm2.5,12.844a10.789,10.789,0,0,1-8.309-3.922,10.762,10.762,0,0,1,16.617,0A10.789,10.789,0,0,1,62.085,54.914Zm11.128-4.636a1.23,1.23,0,0,0-.113.231,1.23,1.23,0,0,0-.113-.231,13.3,13.3,0,0,0-6.771-5.022,10.7,10.7,0,0,1,13.767,0A13.3,13.3,0,0,0,73.213,50.278Zm10.9,4.636a10.789,10.789,0,0,1-8.309-3.922,10.762,10.762,0,0,1,16.617,0A10.789,10.789,0,0,1,84.115,54.914Z"/><path d="M88.324,64.467l-8.018,7.6a2.291,2.291,0,0,1-1.559.607l-8.191-.139,4.686.03a4.194,4.194,0,0,0,3.675-1.95,4.285,4.285,0,0,0,.59-4.17,2.9,2.9,0,0,0-2.612-1.578l-8.936-.058h-.077a11.664,11.664,0,0,0-8.062,3.215l-5,4.742a3.515,3.515,0,0,0-4.769.08l-.338.32a3.548,3.548,0,0,0-.134,5.016L60.778,90l-3.211,3.1A1.25,1.25,0,0,0,59.3,94.9l3.213-3.1a3.523,3.523,0,0,0,4.84-.018l.337-.32a3.549,3.549,0,0,0,.133-5.016L56.56,74.561l4.979-4.721a8.987,8.987,0,0,1,6.4-2.529l8.871.056c.371.021.429.14.447.179a2,2,0,0,1-.4,1.655,1.8,1.8,0,0,1-1.449.871c-.035,0-.069,0-.1,0l-4.731-.03h-.017a2.5,2.5,0,0,0-.04,5.008l8.191.131a4.874,4.874,0,0,0,3.32-1.293l8.018-7.6a1.454,1.454,0,0,1,1.968-.1,1.354,1.354,0,0,1,0,1.967L83.3,76.408a10.89,10.89,0,0,1-4.089,2.436l-9.767,3.189a1.25,1.25,0,0,0,.775,2.377l9.767-3.19a13.41,13.41,0,0,0,5.034-3l8.717-8.264a3.873,3.873,0,0,0,1.2-2.8,3.822,3.822,0,0,0-1.2-2.8A3.929,3.929,0,0,0,88.324,64.467ZM65.971,89.646l-.336.32a1.05,1.05,0,0,1-1.481-.04L51.39,76.463a1.048,1.048,0,0,1,.04-1.481l.338-.32a1.039,1.039,0,0,1,.72-.287h.028a1.041,1.041,0,0,1,.732.327l.636.671h0l12.125,12.79A1.049,1.049,0,0,1,65.971,89.646Z"/><path d="M46.687,80.489,33.451,93.095a1.25,1.25,0,0,0,1.725,1.811L48.412,82.3a1.25,1.25,0,1,0-1.725-1.811Z"/></svg>
